<?xml version="1.0" encoding="us-ascii" standalone="no"?><svg xmlns="http://www.w3.org/2000/svg" xmlns:xlink="http://www.w3.org/1999/xlink" contentStyleType="text/css" height="1037px" preserveAspectRatio="none" style="width:1156px;height:1037px;background:#FFFFFF;" version="1.1" viewBox="0 0 1156 1037" width="1156px" zoomAndPan="magnify"><defs/><g><!--class ILogger--><g id="elem_ILogger"><rect codeLine="3" fill="#F1F1F1" height="85.2422" id="ILogger" rx="2.5" ry="2.5" style="stroke:#181818;stroke-width:0.5;" width="233" x="309" y="484"/><ellipse cx="396.75" cy="500" fill="#B4A7E5" rx="11" ry="11" style="stroke:#181818;stroke-width:1.0;"/><path d="M397.7031,496.6406 L397.7031,503.2969 L399.4219,503.2969 Q400.0313,503.2969 400.2969,503.5313 Q400.5625,503.7656 400.5625,504.1563 Q400.5625,504.5313 400.2969,504.7656 Q400.0313,505 399.4219,505 L394.2813,505 Q393.6719,505 393.4063,504.7656 Q393.1406,504.5313 393.1406,504.1406 Q393.1406,503.7656 393.4063,503.5313 Q393.6719,503.2969 394.2813,503.2969 L396,503.2969 L396,496.6406 L394.2813,496.6406 Q393.6719,496.6406 393.4063,496.4063 Q393.1406,496.1719 393.1406,495.7813 Q393.1406,495.4063 393.4063,495.1719 Q393.6719,494.9375 394.2813,494.9375 L399.4219,494.9375 Q400.0313,494.9375 400.2969,495.1719 Q400.5625,495.4063 400.5625,495.7813 Q400.5625,496.1719 400.2969,496.4063 Q400.0313,496.6406 399.4219,496.6406 L397.7031,496.6406 Z " fill="#000000"/><text fill="#000000" font-family="sans-serif" font-size="14" font-style="italic" lengthAdjust="spacing" textLength="49" x="417.25" y="505.7969">ILogger</text><line style="stroke:#181818;stroke-width:0.5;" x1="310" x2="541" y1="516" y2="516"/><line style="stroke:#181818;stroke-width:0.5;" x1="310" x2="541" y1="524" y2="524"/><ellipse cx="320" cy="538.8105" fill="#84BE84" rx="3" ry="3" style="stroke:#038048;stroke-width:1.0;"/><text fill="#000000" font-family="sans-serif" font-size="14" font-style="italic" lengthAdjust="spacing" textLength="199" x="329" y="543.1074">LogInfo(message : string) : void</text><ellipse cx="320" cy="557.4316" fill="#84BE84" rx="3" ry="3" style="stroke:#038048;stroke-width:1.0;"/><text fill="#000000" font-family="sans-serif" font-size="14" font-style="italic" lengthAdjust="spacing" textLength="207" x="329" y="561.7285">LogError(message : string) : void</text></g><!--class LogToFile--><g id="elem_LogToFile"><rect codeLine="9" fill="#F1F1F1" height="178.3477" id="LogToFile" rx="2.5" ry="2.5" style="stroke:#181818;stroke-width:0.5;" width="251" x="7" y="787.5"/><ellipse cx="96.25" cy="803.5" fill="#ADD1B2" rx="11" ry="11" style="stroke:#181818;stroke-width:1.0;"/><path d="M99.0156,799.375 Q99.1719,799.1563 99.3594,799.0469 Q99.5469,798.9375 99.7656,798.9375 Q100.1406,798.9375 100.375,799.2031 Q100.6094,799.4531 100.6094,800.0625 L100.6094,801.5156 Q100.6094,802.125 100.375,802.3906 Q100.1406,802.6563 99.7656,802.6563 Q99.4219,802.6563 99.2188,802.4531 Q99.0156,802.2656 98.9063,801.75 Q98.8594,801.3906 98.6719,801.2031 Q98.3438,800.8281 97.7344,800.6094 Q97.125,800.3906 96.5,800.3906 Q95.7344,800.3906 95.0938,800.7188 Q94.4688,801.0469 93.9688,801.7969 Q93.4844,802.5469 93.4844,803.5781 L93.4844,804.6719 Q93.4844,805.9063 94.375,806.7344 Q95.2656,807.5469 96.8594,807.5469 Q97.7969,807.5469 98.4531,807.2969 Q98.8438,807.1406 99.2656,806.7031 Q99.5313,806.4375 99.6719,806.3594 Q99.8281,806.2813 100.0313,806.2813 Q100.3594,806.2813 100.6094,806.5469 Q100.875,806.7969 100.875,807.1406 Q100.875,807.4844 100.5313,807.8906 Q100.0313,808.4688 99.2344,808.7969 Q98.1563,809.25 96.8594,809.25 Q95.3438,809.25 94.1406,808.625 Q93.1563,808.125 92.4688,807.0625 Q91.7813,805.9844 91.7813,804.7031 L91.7813,803.5469 Q91.7813,802.2188 92.3906,801.0781 Q93.0156,799.9219 94.1094,799.3125 Q95.2031,798.6875 96.4375,798.6875 Q97.1719,798.6875 97.8125,798.8594 Q98.4688,799.0156 99.0156,799.375 Z " fill="#000000"/><text fill="#000000" font-family="sans-serif" font-size="14" lengthAdjust="spacing" textLength="64" x="116.75" y="809.2969">LogToFile</text><line style="stroke:#181818;stroke-width:0.5;" x1="8" x2="257" y1="819.5" y2="819.5"/><rect fill="none" height="6" style="stroke:#C82930;stroke-width:1.0;" width="6" x="15" y="831.3105"/><text fill="#000000" font-family="sans-serif" font-size="14" lengthAdjust="spacing" textLength="75" x="27" y="838.6074">path : string</text><line style="stroke:#181818;stroke-width:0.5;" x1="8" x2="257" y1="846.1211" y2="846.1211"/><ellipse cx="18" cy="860.9316" fill="#84BE84" rx="3" ry="3" style="stroke:#038048;stroke-width:1.0;"/><text fill="#000000" font-family="sans-serif" font-size="14" lengthAdjust="spacing" textLength="149" x="27" y="865.2285">LogToFile(path : string)</text><text fill="#000000" font-family="sans-serif" font-size="14" lengthAdjust="spacing" textLength="4" x="27" y="883.8496">&#160;</text><rect fill="#F24D5C" height="6" style="stroke:#C82930;stroke-width:1.0;" width="6" x="15" y="895.1738"/><text fill="#000000" font-family="sans-serif" font-size="14" lengthAdjust="spacing" textLength="225" x="27" y="902.4707">WriteToFile(message : string) : void</text><text fill="#000000" font-family="sans-serif" font-size="14" lengthAdjust="spacing" textLength="4" x="27" y="921.0918">&#160;</text><ellipse cx="18" cy="935.416" fill="#84BE84" rx="3" ry="3" style="stroke:#038048;stroke-width:1.0;"/><text fill="#000000" font-family="sans-serif" font-size="14" lengthAdjust="spacing" textLength="199" x="27" y="939.7129">LogInfo(message : string) : void</text><ellipse cx="18" cy="954.0371" fill="#84BE84" rx="3" ry="3" style="stroke:#038048;stroke-width:1.0;"/><text fill="#000000" font-family="sans-serif" font-size="14" lengthAdjust="spacing" textLength="208" x="27" y="958.334">LogError(message : string) : void</text></g><!--class LogToConsole--><g id="elem_LogToConsole"><rect codeLine="21" fill="#F1F1F1" height="122.4844" id="LogToConsole" rx="2.5" ry="2.5" style="stroke:#181818;stroke-width:0.5;" width="280" x="293.5" y="815.5"/><ellipse cx="382.75" cy="831.5" fill="#ADD1B2" rx="11" ry="11" style="stroke:#181818;stroke-width:1.0;"/><path d="M385.5156,827.375 Q385.6719,827.1563 385.8594,827.0469 Q386.0469,826.9375 386.2656,826.9375 Q386.6406,826.9375 386.875,827.2031 Q387.1094,827.4531 387.1094,828.0625 L387.1094,829.5156 Q387.1094,830.125 386.875,830.3906 Q386.6406,830.6563 386.2656,830.6563 Q385.9219,830.6563 385.7188,830.4531 Q385.5156,830.2656 385.4063,829.75 Q385.3594,829.3906 385.1719,829.2031 Q384.8438,828.8281 384.2344,828.6094 Q383.625,828.3906 383,828.3906 Q382.2344,828.3906 381.5938,828.7188 Q380.9688,829.0469 380.4688,829.7969 Q379.9844,830.5469 379.9844,831.5781 L379.9844,832.6719 Q379.9844,833.9063 380.875,834.7344 Q381.7656,835.5469 383.3594,835.5469 Q384.2969,835.5469 384.9531,835.2969 Q385.3438,835.1406 385.7656,834.7031 Q386.0313,834.4375 386.1719,834.3594 Q386.3281,834.2813 386.5313,834.2813 Q386.8594,834.2813 387.1094,834.5469 Q387.375,834.7969 387.375,835.1406 Q387.375,835.4844 387.0313,835.8906 Q386.5313,836.4688 385.7344,836.7969 Q384.6563,837.25 383.3594,837.25 Q381.8438,837.25 380.6406,836.625 Q379.6563,836.125 378.9688,835.0625 Q378.2813,833.9844 378.2813,832.7031 L378.2813,831.5469 Q378.2813,830.2188 378.8906,829.0781 Q379.5156,827.9219 380.6094,827.3125 Q381.7031,826.6875 382.9375,826.6875 Q383.6719,826.6875 384.3125,826.8594 Q384.9688,827.0156 385.5156,827.375 Z " fill="#000000"/><text fill="#000000" font-family="sans-serif" font-size="14" lengthAdjust="spacing" textLength="93" x="403.25" y="837.2969">LogToConsole</text><line style="stroke:#181818;stroke-width:0.5;" x1="294.5" x2="572.5" y1="847.5" y2="847.5"/><line style="stroke:#181818;stroke-width:0.5;" x1="294.5" x2="572.5" y1="855.5" y2="855.5"/><rect fill="#F24D5C" height="6" style="stroke:#C82930;stroke-width:1.0;" width="6" x="301.5" y="867.3105"/><text fill="#000000" font-family="sans-serif" font-size="14" lengthAdjust="spacing" textLength="254" x="313.5" y="874.6074">WriteToConsole(message : string) : void</text><text fill="#000000" font-family="sans-serif" font-size="14" lengthAdjust="spacing" textLength="4" x="313.5" y="893.2285">&#160;</text><ellipse cx="304.5" cy="907.5527" fill="#84BE84" rx="3" ry="3" style="stroke:#038048;stroke-width:1.0;"/><text fill="#000000" font-family="sans-serif" font-size="14" lengthAdjust="spacing" textLength="199" x="313.5" y="911.8496">LogInfo(message : string) : void</text><ellipse cx="304.5" cy="926.1738" fill="#84BE84" rx="3" ry="3" style="stroke:#038048;stroke-width:1.0;"/><text fill="#000000" font-family="sans-serif" font-size="14" lengthAdjust="spacing" textLength="208" x="313.5" y="930.4707">LogError(message : string) : void</text></g><!--class BankAccountType--><g id="elem_BankAccountType"><rect codeLine="28" fill="#F1F1F1" height="103.8633" id="BankAccountType" rx="2.5" ry="2.5" style="stroke:#181818;stroke-width:0.5;" width="147" x="842" y="7"/><ellipse cx="857" cy="23" fill="#EB937F" rx="11" ry="11" style="stroke:#181818;stroke-width:1.0;"/><path d="M855.8594,23.7969 L855.8594,26.2969 L860.1875,26.2969 L860.1875,25.375 Q860.1875,24.7656 860.4219,24.5 Q860.6719,24.2344 861.0469,24.2344 Q861.4219,24.2344 861.6563,24.5 Q861.8906,24.7656 861.8906,25.375 L861.8906,28 L853.8906,28 Q853.2656,28 853,27.7656 Q852.75,27.5313 852.75,27.1406 Q852.75,26.7656 853.0156,26.5313 Q853.2813,26.2969 853.8906,26.2969 L854.1563,26.2969 L854.1563,19.6406 L853.8906,19.6406 Q853.2656,19.6406 853,19.4063 Q852.75,19.1719 852.75,18.7813 Q852.75,18.4063 853,18.1719 Q853.2656,17.9375 853.8906,17.9375 L861.5156,17.9375 L861.5156,20.5313 Q861.5156,21.1406 861.2813,21.4063 Q861.0625,21.6563 860.6719,21.6563 Q860.2969,21.6563 860.0625,21.4063 Q859.8281,21.1406 859.8281,20.5313 L859.8281,19.6406 L855.8594,19.6406 L855.8594,22.0938 L857.3438,22.0938 Q857.3438,21.4375 857.4688,21.25 Q857.7344,20.8438 858.2031,20.8438 Q858.5781,20.8438 858.8125,21.1094 Q859.0469,21.3594 859.0469,21.9688 L859.0469,23.9375 Q859.0469,24.4844 858.9219,24.6719 Q858.6563,25.0625 858.2031,25.0625 Q857.7344,25.0625 857.4688,24.6563 Q857.3438,24.4688 857.3438,23.7969 L855.8594,23.7969 Z " fill="#000000"/><text fill="#000000" font-family="sans-serif" font-size="14" lengthAdjust="spacing" textLength="115" x="871" y="28.7969">BankAccountType</text><line style="stroke:#181818;stroke-width:0.5;" x1="843" x2="988" y1="39" y2="39"/><text fill="#000000" font-family="sans-serif" font-size="14" lengthAdjust="spacing" textLength="30" x="848" y="58.1074">Rub,</text><text fill="#000000" font-family="sans-serif" font-size="14" lengthAdjust="spacing" textLength="41" x="848" y="76.7285">Dollar,</text><text fill="#000000" font-family="sans-serif" font-size="14" lengthAdjust="spacing" textLength="30" x="848" y="95.3496">Euro</text><line style="stroke:#181818;stroke-width:0.5;" x1="843" x2="988" y1="102.8633" y2="102.8633"/></g><!--class IBankAccount--><g id="elem_IBankAccount"><rect codeLine="35" fill="#F1F1F1" height="159.7266" id="IBankAccount" rx="2.5" ry="2.5" style="stroke:#181818;stroke-width:0.5;" width="242" x="881.5" y="171"/><ellipse cx="954.25" cy="187" fill="#B4A7E5" rx="11" ry="11" style="stroke:#181818;stroke-width:1.0;"/><path d="M955.2031,183.6406 L955.2031,190.2969 L956.9219,190.2969 Q957.5313,190.2969 957.7969,190.5313 Q958.0625,190.7656 958.0625,191.1563 Q958.0625,191.5313 957.7969,191.7656 Q957.5313,192 956.9219,192 L951.7813,192 Q951.1719,192 950.9063,191.7656 Q950.6406,191.5313 950.6406,191.1406 Q950.6406,190.7656 950.9063,190.5313 Q951.1719,190.2969 951.7813,190.2969 L953.5,190.2969 L953.5,183.6406 L951.7813,183.6406 Q951.1719,183.6406 950.9063,183.4063 Q950.6406,183.1719 950.6406,182.7813 Q950.6406,182.4063 950.9063,182.1719 Q951.1719,181.9375 951.7813,181.9375 L956.9219,181.9375 Q957.5313,181.9375 957.7969,182.1719 Q958.0625,182.4063 958.0625,182.7813 Q958.0625,183.1719 957.7969,183.4063 Q957.5313,183.6406 956.9219,183.6406 L955.2031,183.6406 Z " fill="#000000"/><text fill="#000000" font-family="sans-serif" font-size="14" font-style="italic" lengthAdjust="spacing" textLength="88" x="974.75" y="192.7969">IBankAccount</text><line style="stroke:#181818;stroke-width:0.5;" x1="882.5" x2="1122.5" y1="203" y2="203"/><line style="stroke:#181818;stroke-width:0.5;" x1="882.5" x2="1122.5" y1="211" y2="211"/><ellipse cx="892.5" cy="225.8105" fill="#84BE84" rx="3" ry="3" style="stroke:#038048;stroke-width:1.0;"/><text fill="#000000" font-family="sans-serif" font-size="14" font-style="italic" lengthAdjust="spacing" textLength="192" x="901.5" y="230.1074">Deposit(money : double) : void</text><ellipse cx="892.5" cy="244.4316" fill="#84BE84" rx="3" ry="3" style="stroke:#038048;stroke-width:1.0;"/><text fill="#000000" font-family="sans-serif" font-size="14" font-style="italic" lengthAdjust="spacing" textLength="216" x="901.5" y="248.7285">Withdrawal(money : double) : bool</text><ellipse cx="892.5" cy="263.0527" fill="#84BE84" rx="3" ry="3" style="stroke:#038048;stroke-width:1.0;"/><text fill="#000000" font-family="sans-serif" font-size="14" font-style="italic" lengthAdjust="spacing" textLength="139" x="901.5" y="267.3496">GetBalance() : double</text><ellipse cx="892.5" cy="281.6738" fill="#84BE84" rx="3" ry="3" style="stroke:#038048;stroke-width:1.0;"/><text fill="#000000" font-family="sans-serif" font-size="14" font-style="italic" lengthAdjust="spacing" textLength="193" x="901.5" y="285.9707">GetType() : BankAccountType</text><ellipse cx="892.5" cy="300.2949" fill="#84BE84" rx="3" ry="3" style="stroke:#038048;stroke-width:1.0;"/><text fill="#000000" font-family="sans-serif" font-size="14" font-style="italic" lengthAdjust="spacing" textLength="130" x="901.5" y="304.5918">GetNumber() : string</text><ellipse cx="892.5" cy="318.916" fill="#84BE84" rx="3" ry="3" style="stroke:#038048;stroke-width:1.0;"/><text fill="#000000" font-family="sans-serif" font-size="14" font-style="italic" lengthAdjust="spacing" textLength="121" x="901.5" y="323.2129">GetOwner() : string</text></g><!--class BankAccount--><g id="elem_BankAccount"><rect codeLine="46" fill="#F1F1F1" height="271.4531" id="BankAccount" rx="2.5" ry="2.5" style="stroke:#181818;stroke-width:0.5;" width="503" x="577" y="391"/><ellipse cx="782.75" cy="407" fill="#ADD1B2" rx="11" ry="11" style="stroke:#181818;stroke-width:1.0;"/><path d="M785.5156,402.875 Q785.6719,402.6563 785.8594,402.5469 Q786.0469,402.4375 786.2656,402.4375 Q786.6406,402.4375 786.875,402.7031 Q787.1094,402.9531 787.1094,403.5625 L787.1094,405.0156 Q787.1094,405.625 786.875,405.8906 Q786.6406,406.1563 786.2656,406.1563 Q785.9219,406.1563 785.7188,405.9531 Q785.5156,405.7656 785.4063,405.25 Q785.3594,404.8906 785.1719,404.7031 Q784.8438,404.3281 784.2344,404.1094 Q783.625,403.8906 783,403.8906 Q782.2344,403.8906 781.5938,404.2188 Q780.9688,404.5469 780.4688,405.2969 Q779.9844,406.0469 779.9844,407.0781 L779.9844,408.1719 Q779.9844,409.4063 780.875,410.2344 Q781.7656,411.0469 783.3594,411.0469 Q784.2969,411.0469 784.9531,410.7969 Q785.3438,410.6406 785.7656,410.2031 Q786.0313,409.9375 786.1719,409.8594 Q786.3281,409.7813 786.5313,409.7813 Q786.8594,409.7813 787.1094,410.0469 Q787.375,410.2969 787.375,410.6406 Q787.375,410.9844 787.0313,411.3906 Q786.5313,411.9688 785.7344,412.2969 Q784.6563,412.75 783.3594,412.75 Q781.8438,412.75 780.6406,412.125 Q779.6563,411.625 778.9688,410.5625 Q778.2813,409.4844 778.2813,408.2031 L778.2813,407.0469 Q778.2813,405.7188 778.8906,404.5781 Q779.5156,403.4219 780.6094,402.8125 Q781.7031,402.1875 782.9375,402.1875 Q783.6719,402.1875 784.3125,402.3594 Q784.9688,402.5156 785.5156,402.875 Z " fill="#000000"/><text fill="#000000" font-family="sans-serif" font-size="14" lengthAdjust="spacing" textLength="83" x="803.25" y="412.7969">BankAccount</text><line style="stroke:#181818;stroke-width:0.5;" x1="578" x2="1079" y1="423" y2="423"/><rect fill="none" height="6" style="stroke:#C82930;stroke-width:1.0;" width="6" x="585" y="434.8105"/><text fill="#000000" font-family="sans-serif" font-size="14" lengthAdjust="spacing" textLength="95" x="597" y="442.1074">number : string</text><rect fill="none" height="6" style="stroke:#C82930;stroke-width:1.0;" width="6" x="585" y="453.4316"/><text fill="#000000" font-family="sans-serif" font-size="14" lengthAdjust="spacing" textLength="105" x="597" y="460.7285">balance : double</text><rect fill="none" height="6" style="stroke:#C82930;stroke-width:1.0;" width="6" x="585" y="472.0527"/><text fill="#000000" font-family="sans-serif" font-size="14" lengthAdjust="spacing" textLength="154" x="597" y="479.3496">type : BankAccountType</text><rect fill="none" height="6" style="stroke:#C82930;stroke-width:1.0;" width="6" x="585" y="490.6738"/><text fill="#000000" font-family="sans-serif" font-size="14" lengthAdjust="spacing" textLength="85" x="597" y="497.9707">owner : string</text><line style="stroke:#181818;stroke-width:0.5;" x1="578" x2="1079" y1="505.4844" y2="505.4844"/><ellipse cx="588" cy="520.2949" fill="#84BE84" rx="3" ry="3" style="stroke:#038048;stroke-width:1.0;"/><text fill="#000000" font-family="sans-serif" font-size="14" lengthAdjust="spacing" textLength="477" x="597" y="524.5918">BankAccount(owner : string, type : BankAccountType, balance : double = 0)</text><text fill="#000000" font-family="sans-serif" font-size="14" lengthAdjust="spacing" textLength="4" x="597" y="543.2129">&#160;</text><ellipse cx="588" cy="557.5371" fill="#84BE84" rx="3" ry="3" style="stroke:#038048;stroke-width:1.0;"/><text fill="#000000" font-family="sans-serif" font-size="14" lengthAdjust="spacing" textLength="193" x="597" y="561.834">Deposit(money : double) : void</text><ellipse cx="588" cy="576.1582" fill="#84BE84" rx="3" ry="3" style="stroke:#038048;stroke-width:1.0;"/><text fill="#000000" font-family="sans-serif" font-size="14" lengthAdjust="spacing" textLength="215" x="597" y="580.4551">Withdrawal(money : double) : bool</text><ellipse cx="588" cy="594.7793" fill="#84BE84" rx="3" ry="3" style="stroke:#038048;stroke-width:1.0;"/><text fill="#000000" font-family="sans-serif" font-size="14" lengthAdjust="spacing" textLength="139" x="597" y="599.0762">GetBalance() : double</text><ellipse cx="588" cy="613.4004" fill="#84BE84" rx="3" ry="3" style="stroke:#038048;stroke-width:1.0;"/><text fill="#000000" font-family="sans-serif" font-size="14" lengthAdjust="spacing" textLength="192" x="597" y="617.6973">GetType() : BankAccountType</text><ellipse cx="588" cy="632.0215" fill="#84BE84" rx="3" ry="3" style="stroke:#038048;stroke-width:1.0;"/><text fill="#000000" font-family="sans-serif" font-size="14" lengthAdjust="spacing" textLength="129" x="597" y="636.3184">GetNumber() : string</text><ellipse cx="588" cy="650.6426" fill="#84BE84" rx="3" ry="3" style="stroke:#038048;stroke-width:1.0;"/><text fill="#000000" font-family="sans-serif" font-size="14" lengthAdjust="spacing" textLength="121" x="597" y="654.9395">GetOwner() : string</text></g><!--class ProxyBankAccount--><g id="elem_ProxyBankAccount"><rect codeLine="65" fill="#F1F1F1" height="308.6953" id="ProxyBankAccount" rx="2.5" ry="2.5" style="stroke:#181818;stroke-width:0.5;" width="425" x="616" y="722"/><ellipse cx="765.25" cy="738" fill="#ADD1B2" rx="11" ry="11" style="stroke:#181818;stroke-width:1.0;"/><path d="M768.0156,733.875 Q768.1719,733.6563 768.3594,733.5469 Q768.5469,733.4375 768.7656,733.4375 Q769.1406,733.4375 769.375,733.7031 Q769.6094,733.9531 769.6094,734.5625 L769.6094,736.0156 Q769.6094,736.625 769.375,736.8906 Q769.1406,737.1563 768.7656,737.1563 Q768.4219,737.1563 768.2188,736.9531 Q768.0156,736.7656 767.9063,736.25 Q767.8594,735.8906 767.6719,735.7031 Q767.3438,735.3281 766.7344,735.1094 Q766.125,734.8906 765.5,734.8906 Q764.7344,734.8906 764.0938,735.2188 Q763.4688,735.5469 762.9688,736.2969 Q762.4844,737.0469 762.4844,738.0781 L762.4844,739.1719 Q762.4844,740.4063 763.375,741.2344 Q764.2656,742.0469 765.8594,742.0469 Q766.7969,742.0469 767.4531,741.7969 Q767.8438,741.6406 768.2656,741.2031 Q768.5313,740.9375 768.6719,740.8594 Q768.8281,740.7813 769.0313,740.7813 Q769.3594,740.7813 769.6094,741.0469 Q769.875,741.2969 769.875,741.6406 Q769.875,741.9844 769.5313,742.3906 Q769.0313,742.9688 768.2344,743.2969 Q767.1563,743.75 765.8594,743.75 Q764.3438,743.75 763.1406,743.125 Q762.1563,742.625 761.4688,741.5625 Q760.7813,740.4844 760.7813,739.2031 L760.7813,738.0469 Q760.7813,736.7188 761.3906,735.5781 Q762.0156,734.4219 763.1094,733.8125 Q764.2031,733.1875 765.4375,733.1875 Q766.1719,733.1875 766.8125,733.3594 Q767.4688,733.5156 768.0156,733.875 Z " fill="#000000"/><text fill="#000000" font-family="sans-serif" font-size="14" lengthAdjust="spacing" textLength="118" x="785.75" y="743.7969">ProxyBankAccount</text><line style="stroke:#181818;stroke-width:0.5;" x1="617" x2="1040" y1="754" y2="754"/><rect fill="none" height="6" style="stroke:#C82930;stroke-width:1.0;" width="6" x="624" y="765.8105"/><text fill="#000000" font-family="sans-serif" font-size="14" lengthAdjust="spacing" textLength="145" x="636" y="773.1074">account : BankAccount</text><rect fill="none" height="6" style="stroke:#C82930;stroke-width:1.0;" width="6" x="624" y="784.4316"/><text fill="#000000" font-family="sans-serif" font-size="14" lengthAdjust="spacing" textLength="115" x="636" y="791.7285">loggers : ILogger[]</text><line style="stroke:#181818;stroke-width:0.5;" x1="617" x2="1040" y1="799.2422" y2="799.2422"/><ellipse cx="627" cy="814.0527" fill="#84BE84" rx="3" ry="3" style="stroke:#038048;stroke-width:1.0;"/><text fill="#000000" font-family="sans-serif" font-size="14" lengthAdjust="spacing" textLength="276" x="636" y="818.3496">ProxyBankAccount(account : IBankAccount)</text><ellipse cx="627" cy="832.6738" fill="#84BE84" rx="3" ry="3" style="stroke:#038048;stroke-width:1.0;"/><text fill="#000000" font-family="sans-serif" font-size="14" lengthAdjust="spacing" textLength="399" x="636" y="836.9707">ProxyBankAccount(account : IBankAccount, loggers : ILogger[])</text><text fill="#000000" font-family="sans-serif" font-size="14" lengthAdjust="spacing" textLength="4" x="636" y="855.5918">&#160;</text><ellipse cx="627" cy="869.916" fill="#84BE84" rx="3" ry="3" style="stroke:#038048;stroke-width:1.0;"/><text fill="#000000" font-family="sans-serif" font-size="14" lengthAdjust="spacing" textLength="193" x="636" y="874.2129">Deposit(money : double) : void</text><ellipse cx="627" cy="888.5371" fill="#84BE84" rx="3" ry="3" style="stroke:#038048;stroke-width:1.0;"/><text fill="#000000" font-family="sans-serif" font-size="14" lengthAdjust="spacing" textLength="215" x="636" y="892.834">Withdrawal(money : double) : bool</text><ellipse cx="627" cy="907.1582" fill="#84BE84" rx="3" ry="3" style="stroke:#038048;stroke-width:1.0;"/><text fill="#000000" font-family="sans-serif" font-size="14" lengthAdjust="spacing" textLength="139" x="636" y="911.4551">GetBalance() : double</text><ellipse cx="627" cy="925.7793" fill="#84BE84" rx="3" ry="3" style="stroke:#038048;stroke-width:1.0;"/><text fill="#000000" font-family="sans-serif" font-size="14" lengthAdjust="spacing" textLength="192" x="636" y="930.0762">GetType() : BankAccountType</text><ellipse cx="627" cy="944.4004" fill="#84BE84" rx="3" ry="3" style="stroke:#038048;stroke-width:1.0;"/><text fill="#000000" font-family="sans-serif" font-size="14" lengthAdjust="spacing" textLength="129" x="636" y="948.6973">GetNumber() : string</text><ellipse cx="627" cy="963.0215" fill="#84BE84" rx="3" ry="3" style="stroke:#038048;stroke-width:1.0;"/><text fill="#000000" font-family="sans-serif" font-size="14" lengthAdjust="spacing" textLength="121" x="636" y="967.3184">GetOwner() : string</text><text fill="#000000" font-family="sans-serif" font-size="14" lengthAdjust="spacing" textLength="4" x="636" y="985.9395">&#160;</text><ellipse cx="627" cy="1000.2637" fill="#84BE84" rx="3" ry="3" style="stroke:#038048;stroke-width:1.0;"/><text fill="#000000" font-family="sans-serif" font-size="14" lengthAdjust="spacing" textLength="308" x="636" y="1004.5605">AddLogger(name : string, logger : ILogger) : void</text><ellipse cx="627" cy="1018.8848" fill="#84BE84" rx="3" ry="3" style="stroke:#038048;stroke-width:1.0;"/><text fill="#000000" font-family="sans-serif" font-size="14" lengthAdjust="spacing" textLength="304" x="636" y="1023.1816">DelLogger(name : string, logger : ILogger) : void</text></g><!--reverse link ILogger to LogToFile--><g id="link_ILogger_LogToFile"><path codeLine="8" d="M377.47,584.54 C331.09,639.63 260.2,723.83 206.59,787.5 " fill="none" id="ILogger-backto-LogToFile" style="stroke:#181818;stroke-width:1.0;stroke-dasharray:7.0,7.0;"/><polygon fill="none" points="372.21,579.92,390.45,569.13,382.92,588.94,372.21,579.92" style="stroke:#181818;stroke-width:1.0;"/></g><!--reverse link ILogger to LogToConsole--><g id="link_ILogger_LogToConsole"><path codeLine="20" d="M426.92,589.35 C428.39,653.23 430.67,752.25 432.12,815.46 " fill="none" id="ILogger-backto-LogToConsole" style="stroke:#181818;stroke-width:1.0;stroke-dasharray:7.0,7.0;"/><polygon fill="none" points="419.92,589.29,426.46,569.13,433.91,588.97,419.92,589.29" style="stroke:#181818;stroke-width:1.0;"/></g><!--link BankAccountType to IBankAccount--><g id="link_BankAccountType_IBankAccount"><path codeLine="34" d="M944.4,123.12 C949.65,134.58 955.22,146.74 960.75,158.82 " fill="none" id="BankAccountType-IBankAccount" style="stroke:#181818;stroke-width:1.0;"/><polygon fill="#181818" points="938.93,111.17,939.0387,121.0183,941.011,115.7164,946.3129,117.6887,938.93,111.17" style="stroke:#181818;stroke-width:1.0;"/><line style="stroke:#181818;stroke-width:1.0;" x1="941.011" x2="944.34" y1="115.7164" y2="122.985"/><polygon fill="none" points="966.26,170.84,967.3966,163.719,961.2606,159.931,960.124,167.052,966.26,170.84" style="stroke:#181818;stroke-width:1.0;"/></g><!--reverse link IBankAccount to BankAccount--><g id="link_IBankAccount_BankAccount"><path codeLine="44" d="M941.27,348.25 C932.47,362.08 923.29,376.51 914.12,390.91 " fill="none" id="IBankAccount-backto-BankAccount" style="stroke:#181818;stroke-width:1.0;stroke-dasharray:7.0,7.0;"/><polygon fill="none" points="935.53,344.22,952.17,331.11,947.34,351.74,935.53,344.22" style="stroke:#181818;stroke-width:1.0;"/></g><!--link BankAccountType to BankAccount--><g id="link_BankAccountType_BankAccount"><path codeLine="45" d="M881.45,123.08 C874.47,138.39 867.91,154.97 863.5,171 C845.21,237.53 836.22,313.4 831.89,377.83 " fill="none" id="BankAccountType-BankAccount" style="stroke:#181818;stroke-width:1.0;"/><polygon fill="#181818" points="887.12,111.12,879.6576,117.5475,884.9833,115.6405,886.8904,120.9662,887.12,111.12" style="stroke:#181818;stroke-width:1.0;"/><line style="stroke:#181818;stroke-width:1.0;" x1="884.9833" x2="881.555" y1="115.6405" y2="122.865"/><polygon fill="#181818" points="831.06,390.98,835.4281,385.2424,831.8118,379.0036,827.4438,384.7412,831.06,390.98" style="stroke:#181818;stroke-width:1.0;"/></g><!--reverse link IBankAccount to ProxyBankAccount--><g id="link_IBankAccount_ProxyBankAccount"><path codeLine="62" d="M1078.87,348.62 C1086.48,362.23 1093.03,376.53 1097.5,391 C1133.07,506.07 1149.88,553.54 1097.5,662 C1083.63,690.72 1063.8,716.77 1041.12,739.99 " fill="none" id="IBankAccount-backto-ProxyBankAccount" style="stroke:#181818;stroke-width:1.0;stroke-dasharray:7.0,7.0;"/><polygon fill="none" points="1072.68,351.91,1068.35,331.16,1084.67,344.68,1072.68,351.91" style="stroke:#181818;stroke-width:1.0;"/></g><!--link BankAccount to ProxyBankAccount--><g id="link_BankAccount_ProxyBankAccount"><path codeLine="63" d="M828.5,675.47 C828.5,686.51 828.5,697.7 828.5,708.85 " fill="none" id="BankAccount-ProxyBankAccount" style="stroke:#181818;stroke-width:1.0;"/><polygon fill="#181818" points="828.5,662.05,824.5,671.05,828.5,667.05,832.5,671.05,828.5,662.05" style="stroke:#181818;stroke-width:1.0;"/><line style="stroke:#181818;stroke-width:1.0;" x1="828.5" x2="828.5" y1="667.05" y2="675.05"/><polygon fill="none" points="828.5,721.91,832.5,715.91,828.5,709.91,824.5,715.91,828.5,721.91" style="stroke:#181818;stroke-width:1.0;"/></g><!--link ILogger to ProxyBankAccount--><g id="link_ILogger_ProxyBankAccount"><path codeLine="64" d="M473.7,578.64 C498.64,604.37 529.96,635.62 559.5,662 C578.61,679.07 598.88,696.42 619.38,713.48 " fill="none" id="ILogger-ProxyBankAccount" style="stroke:#181818;stroke-width:1.0;"/><polygon fill="#181818" points="464.48,569.07,467.8437,578.3267,467.9491,572.6708,473.6049,572.7762,464.48,569.07" style="stroke:#181818;stroke-width:1.0;"/><line style="stroke:#181818;stroke-width:1.0;" x1="467.9491" x2="473.5" y1="572.6708" y2="578.43"/><polygon fill="none" points="629.47,721.83,627.4029,714.9215,620.2309,714.1724,622.2979,721.0809,629.47,721.83" style="stroke:#181818;stroke-width:1.0;"/></g><!--SRC=[rLDDJuGm5BptL_GcAEnwDdfONJMR63N6n8FnKA2onD97sg9kTF-xBU3Iyg6h1nDlPTxqlPdEOsUfL24FfjE24QxAd4rYoASn8rA6IKPIGNA4CgweU2GnnOiBI5Cgy1lQmsyaaagGMAsnHXVy4RoSIabIYW-mhcGyzVNf6RAanpuL0iGuVOtGvwJ3zyd4tBY5iunHL2bhlxMG41T4BJSza9wrANjEoKUQV2SoHPlgwFowntUMVkdZ1BW4rqe3LMuQWGtq9nefBtDyJFZJB8wXvEfsLHWjDsKKe3amHaI0Jai1Xjkb7OOXu8M5sjjYmTsLcTC2PAQy73XTQIq9b16Zmmjpbwbb8iWBOGFq282vz7EgZebUvvXw_eRQenZrLRtZg4UyBFE8YehQh5YNSVN2NOB9tVPUXM-_qS0hxZg4UZdSzminhwIqSq8SrKPRco5Mfc7VLeZ1o7H-58lZkTLWf4tGcuYFyBvlcdsRw3OnZcNtTM0ZAMqTpRM0rzL8FlM6znYR_tgmMiVNXQiCINDsV6YSLVsanflMzm_cLRizlFQ-xSFVdXeCZVf72MfubYIrS8-Jd5fBMpjhZLdQvvJzyCuQVG00]--></g></svg>